<?xml version="1.0" encoding="UTF-8" standalone="no" ?>
<!DOCTYPE svg PUBLIC "-//W3C//DTD SVG 1.1//EN" "http://www.w3.org/Graphics/SVG/1.1/DTD/svg11.dtd">
<svg xmlns="http://www.w3.org/2000/svg" xmlns:xlink="http://www.w3.org/1999/xlink" version="1.1" width="500" height="500" viewBox="0 0 500 500" xml:space="preserve">
<desc>Created with Fabric.js 3.6.3</desc>
<defs>
</defs>
<g transform="matrix(1 0 0 1 332.3608613484389 252.61138469933977)" style=""  ><path fill="#000000" opacity="1" d="M-125.79-4.07C-124.01-5.14-122.49-6.87-122.49-9.51C-122.49-14.95-126.65-17.13-132.38-17.13L-139.55-17.13C-140.25-17.13-140.82-16.56-140.82-15.86L-140.82 11.67C-140.82 12.37-140.25 12.94-139.55 12.94L-131.39 12.94C-125.87 12.94-121.05 9.65-121.05 4.25C-121.05 1.04-123.27-1.60-125.83-3.25C-126.28-3.54-126.36-3.70-125.79-4.07ZM-125.13-9.51C-125.13-5.68-128.13-5.10-132.38-5.10C-132.38-5.10-136.70-5.10-137.32-5.10C-137.90-5.10-138.15-5.43-138.15-6.01C-138.15-8.11-138.15-13.22-138.15-13.63C-138.15-14.13-137.94-14.46-137.24-14.46C-136.54-14.46-132.17-14.46-132.17-14.46C-128.01-14.46-125.13-13.43-125.13-9.51ZM-131.39 10.27C-131.39 10.27-136.54 10.27-137.16 10.27C-137.78 10.27-138.15 9.94-138.15 9.36C-138.15 8.91-138.15 1.16-138.15-1.52C-138.15-2.10-137.94-2.43-137.32-2.43C-136.75-2.43-131.39-2.43-131.39-2.43C-127.35-2.43-123.68 0.29-123.68 4.25C-123.68 8.20-127.35 10.27-131.39 10.27Z"/><path fill="#000000" opacity="1" d="M-110.05-4.49C-113.84-4.32-115.16-7.37-115.16-9.84C-115.16-12.77-113.10-15.16-109.96-15.16C-107.95-15.16-106.79-14.09-105.39-12.40C-104.36-11.16-102.22-12.31-103.12-13.92C-104.48-16.31-106.96-17.63-109.96-17.63C-114.50-17.63-117.63-14.13-117.63-9.84C-117.63-5.06-114.13-1.81-110.05-1.97C-106.30-2.18-103.58 0.79-103.58 4.33C-103.58 8.25-106.05 11.01-109.96 11.01C-112.56 11.01-114.13 9.52-115.40 7.67C-116.76 5.77-119.11 7.34-117.96 9.24C-116.35 11.87-113.47 13.48-109.96 13.48C-104.69 13.48-101.06 9.61-101.06 4.33C-101.06-1.85-106.46-4.61-110.05-4.49Z"/><path fill="#000000" opacity="1" d="M-85.08-16.35C-85.28-16.89-85.78-17.13-86.31-17.13C-86.81-17.13-87.34-16.89-87.55-16.35L-99.09 11.13C-99.33 11.75-99.05 12.53-98.39 12.78L-98.30 12.82C-97.65 13.11-96.90 12.78-96.62 12.16C-96.62 12.16-93.69 5.20-93.48 4.70C-93.28 4.21-92.99 4.04-92.49 4.04C-92.08 4.04-82.89 4.04-80.18 4.04C-79.68 4.04-79.35 4.21-79.19 4.58C-79.02 4.95-76.01 12.16-76.01 12.16C-75.73 12.78-74.98 13.11-74.32 12.82L-74.24 12.78C-73.58 12.53-73.25 11.75-73.54 11.13L-85.08-16.35ZM-91.88 0.83C-91.75 0.54-88.00-8.94-86.73-11.70C-86.40-12.40-86.23-12.40-85.94-11.70C-84.79-8.94-81.00 0.29-80.79 0.71C-80.59 1.20-80.67 1.37-81.25 1.37C-81.78 1.37-89.08 1.37-91.38 1.37C-91.84 1.37-92.00 1.20-91.88 0.83Z"/><path fill="#000000" opacity="1" d="M-55.66-17.13L-69.67-17.13C-70.37-17.13-70.95-16.56-70.95-15.86L-70.95 11.67C-70.95 12.37-70.37 12.94-69.67 12.94L-69.59 12.94C-68.89 12.94-68.31 12.37-68.31 11.67L-68.31-0.69C-68.31-1.02-68.19-1.15-67.77-1.15L-57.23-1.15C-56.53-1.15-55.95-1.72-55.95-2.43L-55.95-2.51C-55.95-3.21-56.53-3.78-57.23-3.78L-67.86-3.78C-68.19-3.78-68.31-3.91-68.31-4.32L-68.31-14.04C-68.31-14.37-68.19-14.50-67.77-14.50L-55.66-14.50C-54.96-14.50-54.38-15.07-54.38-15.77L-54.38-15.86C-54.38-16.56-54.96-17.13-55.66-17.13Z"/><path fill="#000000" opacity="1" d="M-35.84 10.27L-48.82 10.27C-49.19 10.27-49.27 10.14-49.27 9.77L-49.27-0.69C-49.27-1.07-49.15-1.15-48.74-1.15L-38.19-1.15C-37.49-1.15-36.91-1.72-36.91-2.43L-36.91-2.51C-36.91-3.21-37.49-3.78-38.19-3.78L-48.82-3.78C-49.19-3.78-49.27-3.91-49.27-4.32L-49.27-14.04C-49.27-14.37-49.15-14.50-48.74-14.50L-36.62-14.50C-35.92-14.50-35.35-15.07-35.35-15.77L-35.35-15.86C-35.35-16.56-35.92-17.13-36.62-17.13L-50.67-17.13C-51.38-17.13-51.91-16.56-51.91-15.86L-51.91 11.67C-51.91 12.37-51.38 12.94-50.67 12.94L-35.84 12.94C-35.14 12.94-34.56 12.37-34.56 11.67L-34.56 11.54C-34.56 10.84-35.14 10.27-35.84 10.27Z"/><path fill="#000000" opacity="1" d="M-16.44-17.63C-25.05-17.63-32.01-10.71-32.01-2.10C-32.01 6.47-25.05 13.48-16.44 13.48C-12.56 13.48-9.14 11.83-6.51 9.52C-6.14 9.24-6.05 8.95-6.05 8.45C-6.05 8.00-6.05 0.13-6.05 0.13C-6.05-0.57-6.63-1.15-7.33-1.15L-7.45-1.15C-8.15-1.15-8.69-0.57-8.69 0.13C-8.69 0.13-8.69 6.64-8.69 7.42C-8.69 8.29-9.02 8.49-9.18 8.62C-11.20 10.10-13.72 11.01-16.44 11.01C-23.61 11.01-29.37 5.03-29.37-2.10C-29.37-9.26-23.61-15.16-16.44-15.16C-12.36-15.16-8.85-13.22-6.59-10.25C-6.38-9.97-6.05-9.92-6.05-10.42C-6.05-11.41-6.05-12.81-6.05-13.06C-6.05-13.47-6.22-13.63-6.51-13.92C-9.06-16.27-12.56-17.63-16.44-17.63Z"/><path fill="#000000" opacity="1" d="M16.61 10.51C15.58 10.51 17.02 6.72 17.02 4.50C17.02 1.61 15.74-0.24 13.52-1.52C12.94-1.85 12.98-2.05 13.44-2.38C15.50-3.83 16.90-5.89 16.90-8.69C16.90-14.09 12.03-17.13 6.47-17.13L-0.66-17.13C-1.36-17.13-1.93-16.56-1.93-15.49C-1.93-15.49-1.93 11.71-1.93 12.04C-1.93 12.37-1.36 12.94-0.66 12.94L-0.53 12.94C0.17 12.94 0.75 12.45 0.75 12.04C0.75 11.67 0.75 0.25 0.75 0.25C0.75-0.12 0.87-0.20 1.24-0.20L7.67-0.20C12.45-0.20 14.30 1.16 14.30 4.50C14.30 7.34 13.35 10.59 14.51 12.12C14.96 12.74 15.87 13.19 16.61 13.19C19.12 13.19 18.87 10.51 16.61 10.51ZM6.47-2.88L1.20-2.88C0.83-2.88 0.75-3.00 0.75-3.37L0.75-14.04C0.75-14.37 0.87-14.50 1.24-14.50L6.47-14.50C10.55-14.50 14.26-12.64 14.26-8.69C14.26-4.81 10.67-2.88 6.47-2.88Z"/><path fill="#000000" opacity="1" d="M36.88-17.63C28.27-17.63 21.30-10.71 21.30-2.10C21.30 6.47 28.27 13.48 36.88 13.48C45.49 13.48 52.04 6.47 52.04-2.10C52.04-10.71 45.49-17.63 36.88-17.63ZM36.88 11.01C29.75 11.01 23.94 5.03 23.94-2.10C23.94-9.26 29.75-15.20 36.88-15.20C44.01-15.20 49.40-9.26 49.40-2.10C49.40 5.03 44.01 11.01 36.88 11.01Z"/><path fill="#000000" opacity="1" d="M77.17-17.13L77.05-17.13C76.35-17.13 75.77-16.56 75.77-15.86L75.77-0.94C75.77 6.23 73.80 11.01 67.20 11.01C60.57 11.01 58.18 6.23 58.18-0.94L58.18-15.86C58.18-16.56 57.65-17.13 56.94-17.13L56.82-17.13C56.12-17.13 55.54-16.56 55.54-15.86L55.54-0.94C55.54 7.67 58.59 13.48 67.20 13.48C75.77 13.48 78.45 7.67 78.45-0.94L78.45-15.86C78.45-16.56 77.88-17.13 77.17-17.13Z"/><path fill="#000000" opacity="1" d="M91.39-17.13L83.85-17.13C83.15-17.13 82.57-16.56 82.57-15.86L82.57 11.67C82.57 12.37 83.15 12.94 83.85 12.94L83.97 12.94C84.67 12.94 85.25 12.37 85.25 11.67L85.25 1.98C85.25 1.61 85.37 1.53 85.74 1.53L91.39 1.53C97.12 1.53 101.77-2.22 101.77-7.95C101.77-13.67 97.12-17.13 91.39-17.13ZM91.39-1.15L85.70-1.15C85.33-1.15 85.25-1.27 85.25-1.64L85.25-14.04C85.25-14.37 85.37-14.50 85.74-14.50L91.39-14.50C95.67-14.50 99.14-12.23 99.14-7.95C99.14-3.66 95.67-1.15 91.39-1.15Z"/></g><g transform="matrix(1.1821634636959601 0 0 1.1821634636959601 127.97793535468723 252.46705567618073)"  >
<path style="stroke: none; stroke-width: 0; stroke-dasharray: none; stroke-linecap: butt; stroke-dashoffset: 0; stroke-linejoin: miter; stroke-miterlimit: 4; fill: rgb(255,83,13); fill-rule: nonzero; opacity: 1;"  transform=" translate(-49.999485823477684, -49.99406350000002)" d="m 39.031 57.121 c 0.089844 0.03125 0.19141 0.050781 0.28906 0.050781 c 0.10156 0 0.19922 -0.019531 0.28906 -0.050781 c 8.0117 -2.6094 13.469 -6.8086 16.32 -12.531 h 3.8906 l 4.9688 4.9688 v 1.4297 c -1.6211 0.42188 -2.8086 1.8906 -2.8086 3.6289 c 0 2.0703 1.6797 3.7617 3.7617 3.7617 c 2.0703 0 3.75 -1.6797 3.75 -3.7617 c 0 -1.7383 -1.1992 -3.2109 -2.8086 -3.6289 v -1.8203 c 0 -0.25 -0.10156 -0.48828 -0.28125 -0.67188 l -5.5195 -5.5195 c -0.17969 -0.17969 -0.42187 -0.28125 -0.67187 -0.28125 h -3.4609 c 0.35938 -0.96094 0.66016 -1.9609 0.89062 -3 h 9.0781 l 3.7617 3.7617 c -0.32812 0.55859 -0.51953 1.2109 -0.51953 1.9102 c 0 2.0703 1.6797 3.75 3.7617 3.75 c 2.0703 0 3.75 -1.6797 3.75 -3.75 c 0 -2.0703 -1.6797 -3.7617 -3.75 -3.7617 c -0.69141 0 -1.3398 0.19141 -1.8984 0.51953 l -4.0391 -4.0391 c -0.17969 -0.17969 -0.42188 -0.26953 -0.67188 -0.26953 h -9.1602 v -2.7891 h 13.969 c 0.42188 1.6211 1.8906 2.8086 3.6289 2.8086 c 2.0703 0 3.7617 -1.6797 3.7617 -3.75 c 0 -2.0703 -1.6797 -3.75 -3.7617 -3.75 c -1.7383 0 -3.2109 1.1992 -3.6289 2.8086 l -13.961 0.003907 v -2.5898 h 9.2617 c 0.25 0 0.48828 -0.10156 0.67188 -0.28125 l 3.9609 -4.0312 c 0.55078 0.32031 1.1992 0.51172 1.8789 0.51172 c 2.0703 0 3.75 -1.6797 3.75 -3.75 c 0 -2.0703 -1.6797 -3.7617 -3.75 -3.7617 s -3.7617 1.6797 -3.7617 3.7617 c 0 0.69922 0.19141 1.3594 0.53125 1.9219 l -3.6914 3.7383 h -8.8594 v -3 h 2.1211 c 0.25 0 0.48047 -0.10156 0.66016 -0.26953 l 5.6602 -5.5195 c 0.17969 -0.17969 0.28125 -0.42188 0.28125 -0.67188 v -1.8203 c 1.6211 -0.42188 2.8086 -1.8906 2.8086 -3.6289 c 0 -2.0703 -1.6797 -3.75 -3.75 -3.75 s -3.7617 1.6797 -3.7617 3.75 c 0 1.7383 1.1992 3.2109 2.8086 3.6289 v 1.4297 l -5.1016 4.9805 h -1.7383 v -2.5117 c 0 -0.51953 -0.42188 -0.94141 -0.94141 -0.94141 c -3.4805 0 -6.3086 -2.8281 -6.3086 -6.3008 c 0 -0.19141 0.011719 -0.39844 0.03125 -0.60938 c 0.03125 -0.26953 -0.058594 -0.53125 -0.23828 -0.71875 c -0.17969 -0.19922 -0.42969 -0.30859 -0.69922 -0.30859 l -20.957 0.003906 c -0.26953 0 -0.51953 0.10938 -0.69922 0.30859 c -0.17969 0.19922 -0.26953 0.46094 -0.23828 0.71875 c 0.019531 0.19141 0.03125 0.39062 0.03125 0.60938 c 0 3.4805 -2.8281 6.3008 -6.3008 6.3008 c -0.51953 0 -0.94141 0.42188 -0.94141 0.94141 v 16.68 c 0 0.050781 0 0.089844 0.011718 0.14062 c 1.3789 9.0898 7.5469 15.492 18.34 19.012 z m -16.473 -34.961 c 4 -0.46094 7.1211 -3.8086 7.2383 -7.8906 h 19.031 c 0.12109 4.0898 3.25 7.4297 7.2383 7.8906 v 15.719 c -0.03125 0.23047 -0.070312 0.44922 -0.12109 0.67969 c 0 0.019531 0 0.03125 -0.011718 0.050781 v 0.011719 c -0.30078 1.6094 -0.76953 3.1211 -1.3984 4.5312 c -0.050781 0.070312 -0.078125 0.14844 -0.10938 0.23047 c -2.5117 5.4102 -7.5117 9.3086 -15.121 11.852 c -9.9805 -3.3281 -15.469 -9.0117 -16.762 -17.352 l 0.007812 -15.723 z m 60.91 37.191 c -0.46094 -1.1797 -1.3516 -2.1094 -2.5 -2.6211 c -1.9102 -0.85156 -4.0898 -0.32031 -5.4297 1.1484 c -0.30859 -0.17188 -0.62891 -0.30859 -0.96094 -0.41016 c -1.2109 -0.37109 -2.4883 -0.23828 -3.6016 0.35938 c -1.1211 0.60156 -1.9297 1.6016 -2.3008 2.8008 l -2.7617 9.1719 c -0.87109 -0.85938 -2.0586 -1.3906 -3.3516 -1.3906 h -8.6484 c -7.4102 -5.3086 -11.891 -3.1914 -15.172 -1.6484 c -1.3281 0.62109 -2.4688 1.1602 -3.5391 1.1211 l -4.6719 -0.21094 v -1.6719 c 0 -0.51953 -0.42188 -0.94141 -0.94141 -0.94141 h -12.441 c -0.51953 0 -0.94141 0.42188 -0.94141 0.94141 v 23.039 c 0 0.51953 0.42188 0.94141 0.94141 0.94141 h 12.453 c 0.51953 0 0.94141 -0.42188 0.94141 -0.94141 v -2.0391 c 3.6406 0.039062 6.9414 0.64062 10.141 1.2188 c 3.1914 0.57812 6.2812 1.1406 9.5391 1.1406 c 2.9102 0 5.9414 -0.44922 9.2812 -1.7305 c 0.050782 -0.019531 0.089844 -0.039062 0.12891 -0.058594 c 2.9102 -1.6797 5.3086 -2.9883 7.2305 -4.0391 c 9.7109 -5.3008 9.8594 -5.4805 16.23 -19.898 l 0.28906 -0.66016 c 0.51563 -1.1445 0.54688 -2.4336 0.085938 -3.6211 z m -1.7969 2.8672 l -0.28906 0.66016 c -6.1836 13.973 -6.1836 13.973 -15.422 19.012 c -1.9219 1.0508 -4.3086 2.3516 -7.2109 4.0312 c -6.5586 2.4883 -11.988 1.5117 -17.738 0.46875 c -3.2812 -0.58984 -6.6719 -1.2109 -10.469 -1.25 l -0.003907 -15.57 l 4.5781 0.21094 c 1.5391 0.070312 2.9414 -0.58984 4.4297 -1.3008 c 3.2109 -1.5195 6.8516 -3.2305 13.512 1.6406 c 0.16016 0.12109 0.35938 0.17969 0.55859 0.17969 h 8.9492 c 1.3398 0 2.4883 0.94141 2.7891 2.2305 c 0 0.019531 0.011719 0.039062 0.011719 0.058594 c 0.039062 0.16016 0.050781 0.35156 0.050781 0.55859 c 0 1.5703 -1.2812 2.8594 -2.8516 2.8594 l -16.805 0.003907 c -0.51953 0 -0.94141 0.42188 -0.94141 0.94141 s 0.42188 0.94141 0.94141 0.94141 h 16.809 c 2.5703 0 4.6719 -2.0703 4.7305 -4.6289 l 2.8008 -1.1289 c 0.82031 -0.32812 1.4414 -0.92969 1.7891 -1.7383 c 0.66016 -1.5 2 -4.6016 3.0703 -7.0781 c 0.71094 -1.6484 1.3281 -3.0703 1.4805 -3.4102 c 0.30859 -0.69141 0.87109 -1.2305 1.5781 -1.5 c 0.71094 -0.26953 1.4883 -0.26172 2.1797 0.050782 c 0.69141 0.30078 1.2305 0.85937 1.5 1.5781 c 0.28906 0.71094 0.26953 1.4805 -0.027344 2.1797 z m -42.352 -15.547 c 6.5586 0 11.898 -5.3398 11.898 -11.898 c 0 -6.5586 -5.3398 -11.898 -11.898 -11.898 c -6.5586 0 -11.898 5.3398 -11.898 11.898 c 0 6.5664 5.3398 11.898 11.898 11.898 z m -5.4688 -13.23 c 0.37109 -0.37109 0.96094 -0.37109 1.3281 0 l 2.9805 2.9805 l 5.2891 -5.2891 c 0.37109 -0.37109 0.96094 -0.37109 1.3281 0 c 0.37109 0.37109 0.37109 0.96094 0 1.3281 l -5.9492 5.9492 c -0.19141 0.19141 -0.42969 0.28125 -0.67188 0.28125 c -0.23828 0 -0.48047 -0.089844 -0.67188 -0.26953 l -3.6484 -3.6406 c -0.35547 -0.37109 -0.35547 -0.97266 0.015624 -1.3398 z" stroke-linecap="round" />
</g>
<g transform="matrix(1 0 0 1 330.4842170272145 289.8432510142336)" style=""  ><path fill="#000000" opacity="1" d="M-132.67 4.16L-137.92 4.16C-138.07 4.16-138.11 4.11-138.11 3.96L-138.11-0.28C-138.11-0.43-138.06-0.46-137.89-0.46L-133.62-0.46C-133.33-0.46-133.10-0.70-133.10-0.98L-133.10-1.02C-133.10-1.30-133.33-1.53-133.62-1.53L-137.92-1.53C-138.07-1.53-138.11-1.58-138.11-1.75L-138.11-5.69C-138.11-5.82-138.06-5.87-137.89-5.87L-132.98-5.87C-132.70-5.87-132.47-6.10-132.47-6.39L-132.47-6.42C-132.47-6.71-132.70-6.94-132.98-6.94L-138.67-6.94C-138.96-6.94-139.17-6.71-139.17-6.42L-139.17 4.72C-139.17 5.01-138.96 5.24-138.67 5.24L-132.67 5.24C-132.38 5.24-132.15 5.01-132.15 4.72L-132.15 4.67C-132.15 4.39-132.38 4.16-132.67 4.16Z"/><path fill="#000000" opacity="1" d="M-117.31-6.94C-117.55-6.94-117.67-6.84-117.73-6.79C-117.73-6.79-121.20-2.60-121.47-2.28C-121.85-1.83-121.84-1.77-122.20-2.20C-122.44-2.48-126.01-6.79-126.01-6.79C-126.08-6.84-126.18-6.94-126.43-6.94C-126.71-6.94-126.94-6.71-126.94-6.42L-126.94 4.72C-126.94 5.01-126.71 5.24-126.43 5.24L-126.38 5.24C-126.09 5.24-125.86 5.01-125.86 4.72C-125.86 4.72-125.86-4.15-125.86-4.54C-125.86-4.90-125.74-4.95-125.54-4.70C-124.66-3.62-122.30-0.73-122.25-0.67C-122.17-0.58-122.02-0.51-121.87-0.51C-121.72-0.51-121.64-0.55-121.49-0.67C-121.37-0.77-119.03-3.69-118.18-4.74C-118.00-4.97-117.88-4.97-117.88-4.54C-117.88-4.09-117.88 4.72-117.88 4.72C-117.88 5.01-117.65 5.24-117.36 5.24L-117.31 5.24C-117.03 5.24-116.80 5.01-116.80 4.72L-116.80-6.42C-116.80-6.71-117.03-6.94-117.31-6.94Z"/><path fill="#000000" opacity="1" d="M-107.64-6.94L-110.69-6.94C-110.97-6.94-111.21-6.71-111.21-6.42L-111.21 4.72C-111.21 5.01-110.97 5.24-110.69 5.24L-110.64 5.24C-110.36 5.24-110.12 5.01-110.12 4.72L-110.12 0.80C-110.12 0.65-110.07 0.62-109.92 0.62L-107.64 0.62C-105.32 0.62-103.43-0.90-103.43-3.22C-103.43-5.54-105.32-6.94-107.64-6.94ZM-107.64-0.46L-109.94-0.46C-110.09-0.46-110.12-0.51-110.12-0.67L-110.12-5.69C-110.12-5.82-110.07-5.87-109.92-5.87L-107.64-5.87C-105.90-5.87-104.50-4.95-104.50-3.22C-104.50-1.48-105.90-0.46-107.64-0.46Z"/><path fill="#000000" opacity="1" d="M-90.05-6.94L-90.10-6.94C-90.38-6.94-90.62-6.71-90.62-6.42L-90.62-1.70C-90.62-1.62-90.68-1.53-90.77-1.53L-96.99-1.53C-97.07-1.53-97.14-1.62-97.14-1.70L-97.14-6.42C-97.14-6.71-97.37-6.94-97.66-6.94L-97.71-6.94C-97.99-6.94-98.23-6.71-98.23-6.42L-98.23 4.72C-98.23 5.01-97.99 5.24-97.71 5.24L-97.66 5.24C-97.37 5.24-97.14 5.01-97.14 4.72L-97.14-0.30C-97.14-0.40-97.07-0.46-96.99-0.46L-90.77-0.46C-90.68-0.46-90.62-0.40-90.62-0.30L-90.62 4.72C-90.62 5.01-90.38 5.24-90.10 5.24L-90.05 5.24C-89.77 5.24-89.53 5.01-89.53 4.72L-89.53-6.42C-89.53-6.71-89.77-6.94-90.05-6.94Z"/><path fill="#000000" opacity="1" d="M-78.89-6.62C-78.97-6.84-79.17-6.94-79.39-6.94C-79.59-6.94-79.80-6.84-79.89-6.62L-84.56 4.51C-84.66 4.76-84.54 5.07-84.28 5.18L-84.24 5.19C-83.98 5.31-83.68 5.18-83.56 4.92C-83.56 4.92-82.37 2.10-82.29 1.90C-82.21 1.70-82.09 1.64-81.89 1.64C-81.72 1.64-78.00 1.64-76.90 1.64C-76.70 1.64-76.57 1.70-76.50 1.85C-76.43 2.00-75.22 4.92-75.22 4.92C-75.10 5.18-74.80 5.31-74.53 5.19L-74.50 5.18C-74.23 5.07-74.10 4.76-74.21 4.51L-78.89-6.62ZM-81.64 0.34C-81.59 0.22-80.07-3.62-79.55-4.74C-79.42-5.02-79.35-5.02-79.24-4.74C-78.77-3.62-77.23 0.12-77.15 0.29C-77.07 0.49-77.10 0.55-77.33 0.55C-77.55 0.55-80.50 0.55-81.44 0.55C-81.62 0.55-81.69 0.49-81.64 0.34Z"/><path fill="#000000" opacity="1" d="M-66.15-1.82C-67.69-1.75-68.22-2.98-68.22-3.99C-68.22-5.17-67.39-6.14-66.12-6.14C-65.30-6.14-64.84-5.70-64.27-5.02C-63.85-4.52-62.98-4.99-63.35-5.64C-63.90-6.61-64.90-7.14-66.12-7.14C-67.96-7.14-69.22-5.72-69.22-3.99C-69.22-2.05-67.81-0.73-66.15-0.80C-64.64-0.88-63.53 0.32-63.53 1.75C-63.53 3.34-64.54 4.46-66.12 4.46C-67.17 4.46-67.81 3.86-68.32 3.11C-68.87 2.34-69.83 2.97-69.36 3.74C-68.71 4.81-67.54 5.46-66.12 5.46C-63.99 5.46-62.52 3.89-62.52 1.75C-62.52-0.75-64.70-1.87-66.15-1.82Z"/><path fill="#000000" opacity="1" d="M-56.63-6.94L-56.66-6.94C-56.94-6.94-57.18-6.71-57.18-6.42L-57.18 4.72C-57.18 5.01-56.94 5.24-56.66 5.24L-56.63 5.24C-56.34 5.24-56.11 5.01-56.11 4.72L-56.11-6.42C-56.11-6.71-56.34-6.94-56.63-6.94Z"/><path fill="#000000" opacity="1" d="M-42.61 4.16C-42.61 4.16-48.72 4.16-48.92 4.16C-49.28 4.16-49.27 4.06-49.13 3.87C-49.00 3.69-42.23-6.10-42.23-6.10C-42.06-6.34-42.13-6.67-42.36-6.82C-42.49-6.92-42.61-6.94-42.73-6.94C-42.73-6.94-49.84-6.94-50.10-6.94C-50.39-6.94-50.62-6.71-50.62-6.42L-50.62-6.39C-50.62-6.10-50.39-5.87-50.10-5.87C-50.10-5.87-44.46-5.87-44.15-5.87C-43.69-5.87-43.78-5.77-43.99-5.45C-44.15-5.22-50.80 4.41-50.80 4.41C-50.97 4.64-50.92 4.96-50.69 5.13C-50.54 5.23-50.37 5.24-50.27 5.24C-50.15 5.24-42.61 5.24-42.61 5.24C-42.33 5.24-42.11 5.01-42.11 4.72L-42.11 4.67C-42.11 4.39-42.33 4.16-42.61 4.16Z"/><path fill="#000000" opacity="1" d="M-36.35-6.94L-36.39-6.94C-36.67-6.94-36.90-6.71-36.90-6.42L-36.90 4.72C-36.90 5.01-36.67 5.24-36.39 5.24L-36.35 5.24C-36.07 5.24-35.84 5.01-35.84 4.72L-35.84-6.42C-35.84-6.71-36.07-6.94-36.35-6.94Z"/><path fill="#000000" opacity="1" d="M-22.02-6.94L-22.07-6.94C-22.35-6.94-22.59-6.71-22.59-6.42C-22.59-6.42-22.59 1.85-22.59 2.29C-22.59 2.72-22.67 2.87-22.95 2.44C-23.25 2.02-29.26-6.72-29.26-6.72C-29.41-6.94-29.68-6.99-29.93-6.89C-30.11-6.82-30.25-6.57-30.25-6.41L-30.25 4.72C-30.25 5.01-30.01 5.24-29.73 5.24L-29.68 5.24C-29.39 5.24-29.16 5.01-29.16 4.72C-29.16 4.72-29.16-3.35-29.16-3.87C-29.16-4.39-29.01-4.45-28.74-4.07C-28.49-3.70-22.50 5.01-22.50 5.01C-22.35 5.23-22.09 5.29-21.85 5.19C-21.65 5.11-21.50 4.92-21.50 4.71L-21.50-6.42C-21.50-6.71-21.74-6.94-22.02-6.94Z"/><path fill="#000000" opacity="1" d="M-9.85-7.14C-13.34-7.14-16.16-4.34-16.16-0.85C-16.16 2.62-13.34 5.46-9.85 5.46C-8.29 5.46-6.90 4.79-5.83 3.86C-5.68 3.74-5.65 3.62-5.65 3.42C-5.65 3.24-5.65 0.05-5.65 0.05C-5.65-0.23-5.88-0.46-6.17-0.46L-6.22-0.46C-6.50-0.46-6.72-0.23-6.72 0.05C-6.72 0.05-6.72 2.69-6.72 3.01C-6.72 3.36-6.85 3.44-6.92 3.49C-7.74 4.09-8.75 4.46-9.85 4.46C-12.76 4.46-15.09 2.04-15.09-0.85C-15.09-3.75-12.76-6.14-9.85-6.14C-8.20-6.14-6.78-5.35-5.87-4.15C-5.78-4.04-5.65-4.02-5.65-4.22C-5.65-4.62-5.65-5.19-5.65-5.29C-5.65-5.45-5.72-5.52-5.83-5.64C-6.87-6.59-8.29-7.14-9.85-7.14Z"/><path fill="#000000" opacity="1" d=""/><path fill="#000000" opacity="1" d="M13.62-1.82C12.09-1.75 11.55-2.98 11.55-3.99C11.55-5.17 12.39-6.14 13.66-6.14C14.47-6.14 14.94-5.70 15.51-5.02C15.93-4.52 16.79-4.99 16.43-5.64C15.88-6.61 14.87-7.14 13.66-7.14C11.82-7.14 10.55-5.72 10.55-3.99C10.55-2.05 11.97-0.73 13.62-0.80C15.14-0.88 16.24 0.32 16.24 1.75C16.24 3.34 15.24 4.46 13.66 4.46C12.61 4.46 11.97 3.86 11.45 3.11C10.90 2.34 9.95 2.97 10.42 3.74C11.07 4.81 12.24 5.46 13.66 5.46C15.79 5.46 17.26 3.89 17.26 1.75C17.26-0.75 15.07-1.87 13.62-1.82Z"/><path fill="#000000" opacity="1" d="M31.36-6.94L31.31-6.94C31.03-6.94 30.79-6.71 30.79-6.42L30.79-0.38C30.79 2.52 29.99 4.46 27.32 4.46C24.64 4.46 23.67 2.52 23.67-0.38L23.67-6.42C23.67-6.71 23.45-6.94 23.17-6.94L23.12-6.94C22.83-6.94 22.60-6.71 22.60-6.42L22.60-0.38C22.60 3.11 23.84 5.46 27.32 5.46C30.79 5.46 31.88 3.11 31.88-0.38L31.88-6.42C31.88-6.71 31.64-6.94 31.36-6.94Z"/><path fill="#000000" opacity="1" d="M43.52-7.14C40.04-7.14 37.22-4.34 37.22-0.85C37.22 2.62 40.04 5.46 43.52 5.46C45.09 5.46 46.50 4.87 47.56 3.94C47.61 3.89 47.73 3.76 47.73 3.57C47.73 3.49 47.73 2.91 47.73 2.51C47.73 2.32 47.61 2.31 47.51 2.44C46.61 3.66 45.18 4.46 43.52 4.46C40.64 4.46 38.29 2.04 38.29-0.85C38.29-3.74 40.64-6.14 43.52-6.14C45.18-6.14 46.61-5.35 47.51-4.14C47.61-4.00 47.73-4.02 47.73-4.22C47.73-4.62 47.73-5.19 47.73-5.29C47.73-5.45 47.61-5.60 47.56-5.64C46.53-6.52 45.09-7.14 43.52-7.14Z"/><path fill="#000000" opacity="1" d="M58.99-7.14C55.51-7.14 52.69-4.34 52.69-0.85C52.69 2.62 55.51 5.46 58.99 5.46C60.56 5.46 61.96 4.87 63.03 3.94C63.08 3.89 63.20 3.76 63.20 3.57C63.20 3.49 63.20 2.91 63.20 2.51C63.20 2.32 63.08 2.31 62.98 2.44C62.08 3.66 60.65 4.46 58.99 4.46C56.11 4.46 53.75 2.04 53.75-0.85C53.75-3.74 56.11-6.14 58.99-6.14C60.65-6.14 62.08-5.35 62.98-4.14C63.08-4.00 63.20-4.02 63.20-4.22C63.20-4.62 63.20-5.19 63.20-5.29C63.20-5.45 63.08-5.60 63.03-5.64C62.00-6.52 60.56-7.14 58.99-7.14Z"/><path fill="#000000" opacity="1" d="M74.91 4.16L69.66 4.16C69.51 4.16 69.47 4.11 69.47 3.96L69.47-0.28C69.47-0.43 69.52-0.46 69.69-0.46L73.96-0.46C74.24-0.46 74.48-0.70 74.48-0.98L74.48-1.02C74.48-1.30 74.24-1.53 73.96-1.53L69.66-1.53C69.51-1.53 69.47-1.58 69.47-1.75L69.47-5.69C69.47-5.82 69.52-5.87 69.69-5.87L74.59-5.87C74.88-5.87 75.11-6.10 75.11-6.39L75.11-6.42C75.11-6.71 74.88-6.94 74.59-6.94L68.90-6.94C68.62-6.94 68.40-6.71 68.40-6.42L68.40 4.72C68.40 5.01 68.62 5.24 68.90 5.24L74.91 5.24C75.20 5.24 75.43 5.01 75.43 4.72L75.43 4.67C75.43 4.39 75.20 4.16 74.91 4.16Z"/><path fill="#000000" opacity="1" d="M83.72-1.82C82.19-1.75 81.65-2.98 81.65-3.99C81.65-5.17 82.49-6.14 83.76-6.14C84.57-6.14 85.04-5.70 85.61-5.02C86.02-4.52 86.89-4.99 86.53-5.64C85.97-6.61 84.97-7.14 83.76-7.14C81.92-7.14 80.65-5.72 80.65-3.99C80.65-2.05 82.07-0.73 83.72-0.80C85.24-0.88 86.34 0.32 86.34 1.75C86.34 3.34 85.34 4.46 83.76 4.46C82.70 4.46 82.07 3.86 81.55 3.11C81.00 2.34 80.05 2.97 80.52 3.74C81.17 4.81 82.34 5.46 83.76 5.46C85.89 5.46 87.36 3.89 87.36 1.75C87.36-0.75 85.17-1.87 83.72-1.82Z"/><path fill="#000000" opacity="1" d="M95.79-1.82C94.25-1.75 93.72-2.98 93.72-3.99C93.72-5.17 94.55-6.14 95.82-6.14C96.64-6.14 97.10-5.70 97.67-5.02C98.09-4.52 98.96-4.99 98.59-5.64C98.04-6.61 97.04-7.14 95.82-7.14C93.98-7.14 92.72-5.72 92.72-3.99C92.72-2.05 94.13-0.73 95.79-0.80C97.30-0.88 98.41 0.32 98.41 1.75C98.41 3.34 97.41 4.46 95.82 4.46C94.77 4.46 94.13 3.86 93.62 3.11C93.07 2.34 92.12 2.97 92.58 3.74C93.23 4.81 94.40 5.46 95.82 5.46C97.96 5.46 99.42 3.89 99.42 1.75C99.42-0.75 97.24-1.87 95.79-1.82Z"/></g></svg>